<svg version="1.1" id="logo" xmlns="http://www.w3.org/2000/svg" xmlns:xlink="http://www.w3.org/1999/xlink" x="0px" y="0px"
     viewBox="0 0 1316 496" style="enable-background:new 0 0 1316 496;" xml:space="preserve" >

	<defs>
	 	<style type="text/css">
	 		.st0{fill:none;stroke:#fff;stroke-width:5;stroke-miterlimit:1;}
			.st1{font-family:'arial black';}
			.st2{font-size:96.6726px;}
			.st3{fill:none;stroke:#FFFFFF;stroke-width:3;stroke-miterlimit:1;}
                        .st4{font-size:120.0454px;}
                    
                        

	 		.st0{
	 			stroke-dasharray: 2000;
	 			stroke-dashoffset: 0;
	 			-webkit-animation: dash 5s linear forwards;
	 			-o-animation: dash 5s linear forwards;
	 			-moz-animation: dash 5s linear forwards;
	 		}
                    .st3{
	 			stroke-dasharray: 2000;
	 			stroke-dashoffset: 0;
	 			-webkit-animation: dash 5s linear forwards;
	 			-o-animation: dash 5s linear forwards;
	 			-moz-animation: dash 5s linear forwards;
	 		}

	 		#logo{
	 		cursor:pointer;
	 		}

	 		#logo:hover .st0{
	 			fill: rgba(22, 127, 57 ,.7);
	 			transition: .8s;
	 		}

	 		#logo.clickit .st0{
	 			fill: rgba(229, 243, 165 ,.5);
	 			stroke: rgb(255, 255, 255);
	 		}
                    
                    #logo:hover .st3{
	 			fill: rgba(22, 127, 57 ,.7);
	 			transition: .8s;
	 		}

	 		#logo.clickit .st3{
	 			fill: rgba(229, 243, 165 ,.5);
	 			stroke: rgb(255, 255, 255);
	 		}

	 		@-webkit-keyframes dash{
	 			from{
	 				stroke-dashoffset: 2000;
	 			}
	 			to{
	 				stroke-dashoffset: 0;
	 			}
	 		}
	 	</style>

	 	<script type="text/javascript">
	 		var clicker = document.querySelector('#logo');
	 		clicker.addEventListener('click', function(){
	 			this.classList.toggle('clickit');
	 		});
	 	</script>

	 </defs>

<g>
<path class="st3" d="M248.5,646.2v0.3h-4C245.9,646.5,247.2,646.4,248.5,646.2z"/>
<path class="st3" d="M472.5,608.5h-6v-0.7C468.4,608.3,470.4,608.5,472.5,608.5z"/>
<rect x="291.5" y="465.5" class="st3" width="48" height="56"/>
<rect x="373.5" y="465.5" class="st3" width="48" height="56"/>
<rect x="291.5" y="552.5" class="st3" width="48" height="56"/>
<rect x="373.5" y="552.5" class="st3" width="48" height="56"/>
<path class="st3" d="M528.5,447.6v43.9h-32v103.6c-5.2,8.1-14,13.4-24,13.4c-2.1,0-4.1-0.2-6-0.7V465.5h28v-3L356,362.6l-137.5,99.7
	v3.2h30v180.7c-1.3,0.2-2.6,0.3-4,0.3c-16,0-29-13.7-29-30.5V491.5h-31v-43.1l34-24.6l137.7-99.8l0.3-0.4l138,99.6L528.5,447.6z"/>
<polygon class="st3" points="637,458.8 610.3,458.8 610.5,555 589.5,567 590.5,436.5 608.7,436.6 608.7,434 493.2,348.8 474,363 
	454.8,377.3 433,360.5 452.2,346.3 493.3,315.8 493.5,315.5 608.7,400.4 637,421.3 "/>
<path class="st3" d="M129.5,542.5L129.5,542.5c-0.1-0.8,0-1.6,0-2.4L129.5,542.5z"/>
<path class="st3" d="M662.5,600.5l-71,69c-66,67-221,47-262.5,41.5c-65.7-8.2-121.2-29.5-154.9-57.9c-37.2-26-60.4-62-60.9-98.9
	l-5.7-95.6L74,458.8v-37.5l28.6-20.9l116.3-84.9l0.3,0.4l41.4,30.4l19.4,14.2l-22,16.8L238.6,363l-19.3-14.2L102.6,434v2.6l25.9-0.1
	l0.6,65.4l0.4,38.1v0.1c0,0.8,0,1.7-0.1,2.5c0,1.3,0,2.6,0.1,3.9c0.5,13.3,4,26,10,37.8c24.5,48.1,90.7,81,166.2,78.1
	c14.8-0.6,29-2.5,42.6-5.6c10.7-12.7,26.3-23,45-29.7c10.5-3.8,22-6.3,34.2-7.4c2.6-0.2,5.1-0.4,7.7-0.5c2.9-0.1,5.7-0.1,8.5-0.1
	c1.5,0,3,0.1,4.5,0.2c3.1,0.3,6.3,0.6,9.6,0.8c4.5,0.3,9,0.4,13.7,0.4c27.9,0,55-6,72.3-14.2c1.5-0.7,2.9-1.4,4.2-2.2c0,0,0,0,0,0
	c0.3-0.1,0.6-0.2,0.9-0.3c0.3-0.1,0.6-0.1,0.9-0.2c0.1,0,0.2,0,0.2,0c0.3,0,0.5-0.1,0.8-0.1c0,0,0.1,0,0.1,0c0.3,0,0.6,0,1,0
	c1.2,0,2.3,0.1,3.4,0.4c0.1,0,0.2,0.1,0.4,0.1c0.4,0.1,0.8,0.3,1.2,0.4c0.2,0.1,0.5,0.2,0.7,0.3c0.4,0.2,0.8,0.4,1.2,0.6
	c0.1,0.1,0.2,0.1,0.3,0.2c0.1,0.1,0.3,0.2,0.4,0.3c0.2,0.1,0.3,0.2,0.5,0.3c0.3,0.2,0.5,0.4,0.8,0.6c0,0,0.1,0,0.1,0.1
	c0.2,0.2,0.4,0.4,0.6,0.6c0.1,0.1,0.1,0.1,0.2,0.2c0.2,0.2,0.5,0.5,0.7,0.7c0.2,0.3,0.5,0.5,0.7,0.8c0.2,0.3,0.4,0.6,0.6,0.9
	c0,0,0,0,0,0c0.2,0.3,0.3,0.5,0.5,0.8c0.1,0.1,0.1,0.2,0.2,0.3c0.2,0.3,0.3,0.6,0.4,0.9c0.2,0.3,0.3,0.7,0.5,1
	c0.1,1.9,0.1,3.7,0.2,5.4c0.4,5.5-1.9,10.5-6.8,15.2c-6.7,6.4-18.1,11.9-33.8,16.5c-12.2,3.6-26.2,6.2-41.2,7.4
	c-1.5,0.1-2.9,0.2-4.4,0.3c-3.1,1.7-3.4,4-1.9,6.7c16.8-1.5,34-4.4,51.7-9.7c15-4.5,30.4-10.7,46.3-19.3l66-55
	C658.5,569.5,671.5,583.5,662.5,600.5z"/>
<path class="st3" d="M574.5,608.5c2.1,5.4,0,17,0,17l66-53c-7.7-4.1-16.7-3.6-28,5L574.5,608.5z"/>
<path class="st3" d="M615.5,568.5c-16.3,11.1-31.1,23.1-44,36c-2.3-3.6-6-5.8-11-7l30-21C599,569.9,607.3,567.8,615.5,568.5z"/>
<path class="st3" d="M610,271.8c-2-1-4.1-2-6.5-3.3c-4.4-2.2-9.2-4.5-14.5-6.8c-11.6-5.1-24.8-10.3-37.7-14.9
	c-0.1,0-0.2-0.1-0.4-0.1c-4.4-1.6-9-3.1-13.7-4.6c-3.7-1.2-7.5-2.3-11.3-3.4l-1.2,2.5c-2.9,5.9-10.1,8.4-16,5.5
	c-5.3-2.6-7.9-8.6-6.3-14.1c-2.1-0.5-4.3-1-6.5-1.5c-13.2-2.9-27-5.3-41.2-7.3l-7.9,16.3c-2.9,5.9-10.1,8.4-16,5.5
	c-5.9-2.9-8.4-10.1-5.5-16l4.3-8.8c-0.6-0.1-1.2-0.1-1.9-0.2c-9.7-1-19.6-1.7-29.7-2.2c-0.6,0-1.2-0.1-1.8-0.1
	c-2.2-0.1-4.4-0.2-6.6-0.3c-3.6-0.1-7.2-0.3-10.8-0.3c0,0.1,0,0.2,0,0.3c0,1.8-0.4,3.5-1.2,5.2l-8.7,17.9c-2.9,5.9-10.1,8.4-16,5.5
	c-5.9-2.9-8.4-10.1-5.5-16l6.4-13.1c-0.5,0-1,0-1.5,0c-17.2,0.2-34.1,1-50.5,2.4c0,0,0,0-0.1,0c-0.2,1.1-0.5,2.2-1,3.3l-8.7,17.9
	c-2.9,5.9-10.1,8.4-16,5.5c-5.9-2.9-8.4-10.1-5.5-16l3.8-7.7c-18.3,2.4-35.9,5.5-52.5,9.2c-0.9,0.2-1.8,0.4-2.6,0.6l-4.1,8.4
	c-2.9,5.9-10.1,8.4-16,5.5c-3-1.5-5.2-4.1-6.1-7.1c-9.1,2.7-17.7,5.6-25.9,8.6c-2.1,0.8-4.1,1.5-6.2,2.3
	c-13.3,5.1-25.7,10.1-37.2,16.3c-1,0.5-1.9,1.1-2.9,1.6l-42,19l5.6,15.5l21.7,65.2l56.2-38.5l15.9-10.9l45.7-31.3l46.3,31.9
	l24.9,17.1l0.7,1l63.8-43.7l60.5,41.7l0.7,1l1.8-1.2l70.6-48.4l39.4,27.1l24.3,16.8l50.6,34.8l16.3-79l1.1-5.2
	C619.6,277,615.6,274.6,610,271.8z M251.5,261.3l-8.7,17.9c-2.9,5.9-10.1,8.4-16,5.5c-5.9-2.9-8.4-10.1-5.5-16l8.7-17.9
	c2.9-5.9,10.1-8.4,16-5.5c4.3,2.1,6.8,6.4,6.8,10.8C252.7,257.8,252.4,259.6,251.5,261.3z M337.5,263.3l-8.7,17.9
	c-2.9,5.9-10.1,8.4-16,5.5c-5.9-2.9-8.4-10.1-5.5-16l8.7-17.9c2.9-5.9,10.1-8.4,16-5.5c4.3,2.1,6.8,6.4,6.8,10.8
	C338.7,259.8,338.4,261.6,337.5,263.3z M405.5,263.3l-8.7,17.9c-2.9,5.9-10.1,8.4-16,5.5c-5.9-2.9-8.4-10.1-5.5-16l8.7-17.9
	c2.9-5.9,10.1-8.4,16-5.5c4.3,2.1,6.8,6.4,6.8,10.8C406.7,259.8,406.4,261.6,405.5,263.3z M492.5,263.3l-8.7,17.9
	c-2.9,5.9-10.1,8.4-16,5.5c-5.9-2.9-8.4-10.1-5.5-16l8.7-17.9c2.9-5.9,10.1-8.4,16-5.5c4.3,2.1,6.8,6.4,6.8,10.8
	C493.7,259.8,493.4,261.6,492.5,263.3z"/>
<path class="st3" d="M589.5,251.5c0,3.5-0.2,6.9-0.5,10.3c-11.6-5.1-24.8-10.3-37.7-14.9c-0.1,0-0.2-0.1-0.4-0.1c0-0.5,0-1,0-1.6
	c0-26.4-12.5-49.8-32.2-65.1c-6.9-39.3-42.1-69.2-84.4-69.2c-14,0-27.2,3.3-38.8,9.1C377.1,97.6,345.6,83,310,83
	c-57,0-103.2,37.3-103.2,83.4c0,1.3,0,2.5,0.1,3.7c-27.5,11.2-46.9,38.8-46.9,71.2c0,3.2,0.2,6.3,0.5,9.3
	c-13.3,5.1-25.7,10.1-37.2,16.3c-1.2-6.6-1.9-13.4-1.9-20.4c0-41.9,23.3-77.7,56.1-92.2c-0.1-1.6-0.1-3.2-0.1-4.8
	c0-59.7,55.3-108,123.5-108c42.7,0,80.3,18.9,102.5,47.7c14-7.5,29.8-11.7,46.5-11.7c50.7,0,92.8,38.8,101,89.7
	C574.5,186.9,589.5,217.4,589.5,251.5z"/>
<path class="st3" d="M252.7,256.1c0,1.8-0.4,3.5-1.2,5.2l-8.7,17.9c-2.9,5.9-10.1,8.4-16,5.5c-5.9-2.9-8.4-10.1-5.5-16l8.7-17.9
	c2.9-5.9,10.1-8.4,16-5.5C250.3,247.3,252.7,251.6,252.7,256.1z"/>
</g>

<text transform="matrix(1.2298 0 0 1 720.585 447.7334)" class="st0 st1 st4">SGDDN</text>
<text transform="matrix(1.085 0 0 1 790.1377 539.5439)">
<tspan x="0" y="0" class="st0 st1 st2">SISTEMA DE GESTIÓN PARA TOMA DE </tspan>
<tspan x="-36.4" y="54.8" class="st0 st1 st2">DECISIONES ANTE DESASTRES NATURALES</tspan></text>

</svg>
